<mxfile host="drawio-plugin" agent="Mozilla/5.0 (Windows NT 10.0; Win64; x64) AppleWebKit/537.36 (KHTML, like Gecko) Chrome/122.0.0.0 Safari/537.36" modified="2025-02-21T08:40:10.178Z" etag="Ok9UpxrSIhIzGQFHbToO" version="22.1.22" type="embed">
  <diagram name="Page-1" id="OVcS8Alv_T-uJs1jZaDE">
    <mxGraphModel dx="807" dy="453" grid="1" gridSize="10" guides="1" tooltips="1" connect="1" arrows="1" fold="1" page="1" pageScale="1" pageWidth="850" pageHeight="1100" math="0" shadow="0">
      <root>
        <mxCell id="0" />
        <mxCell id="1" parent="0" />
        <mxCell id="XHiDL_9w_AK1erUn259C-10" value="&lt;font style=&quot;font-size: 20px;&quot;&gt;Station&lt;/font&gt;" style="swimlane;whiteSpace=wrap;html=1;fontSize=15;startSize=40;" parent="1" vertex="1">
          <mxGeometry x="110" y="440" width="240" height="230" as="geometry">
            <mxRectangle x="510" y="110" width="100" height="30" as="alternateBounds" />
          </mxGeometry>
        </mxCell>
        <mxCell id="XHiDL_9w_AK1erUn259C-11" value="&lt;div&gt;&lt;u&gt;int&lt;/u&gt;: int&lt;/div&gt;&lt;div&gt;&lt;span style=&quot;background-color: initial;&quot;&gt;&lt;br&gt;&lt;/span&gt;&lt;/div&gt;&lt;div&gt;&lt;span style=&quot;background-color: initial;&quot;&gt;name: str&lt;/span&gt;&lt;br&gt;&lt;/div&gt;&lt;div&gt;&lt;br&gt;&lt;/div&gt;&lt;div&gt;latitude: float&lt;/div&gt;&lt;div&gt;&lt;br&gt;&lt;/div&gt;&lt;div&gt;longitude: float&lt;/div&gt;" style="text;html=1;align=left;verticalAlign=bottom;resizable=0;points=[];autosize=1;strokeColor=none;fillColor=none;fontSize=17;horizontal=1;fontFamily=Tahoma;" parent="XHiDL_9w_AK1erUn259C-10" vertex="1">
          <mxGeometry x="20" y="50" width="140" height="160" as="geometry" />
        </mxCell>
        <mxCell id="41" style="edgeStyle=orthogonalEdgeStyle;rounded=0;orthogonalLoop=1;jettySize=auto;html=1;exitX=1;exitY=0.25;exitDx=0;exitDy=0;startArrow=diamondThin;startFill=1;" edge="1" parent="1">
          <mxGeometry relative="1" as="geometry">
            <mxPoint x="1080" y="465" as="sourcePoint" />
            <mxPoint x="1130" y="340" as="targetPoint" />
            <Array as="points">
              <mxPoint x="1200" y="465" />
              <mxPoint x="1200" y="340" />
            </Array>
          </mxGeometry>
        </mxCell>
        <mxCell id="4" value="&lt;font style=&quot;font-size: 20px;&quot;&gt;TrainType&lt;/font&gt;" style="swimlane;whiteSpace=wrap;html=1;fontSize=15;startSize=40;" vertex="1" parent="1">
          <mxGeometry x="920" y="440" width="160" height="140" as="geometry">
            <mxRectangle x="510" y="110" width="100" height="30" as="alternateBounds" />
          </mxGeometry>
        </mxCell>
        <mxCell id="5" value="&lt;div&gt;&lt;u&gt;id: int&lt;/u&gt;&lt;/div&gt;&lt;div&gt;&lt;u&gt;&lt;br&gt;&lt;/u&gt;&lt;/div&gt;&lt;div&gt;&lt;u&gt;name: str&lt;/u&gt;&lt;/div&gt;" style="text;html=1;align=left;verticalAlign=bottom;resizable=0;points=[];autosize=1;strokeColor=none;fillColor=none;fontSize=17;horizontal=1;fontFamily=Tahoma;" vertex="1" parent="4">
          <mxGeometry x="20" y="50" width="100" height="70" as="geometry" />
        </mxCell>
        <mxCell id="7" value="Train" style="swimlane;whiteSpace=wrap;html=1;fontSize=20;startSize=40;" vertex="1" parent="1">
          <mxGeometry x="890" y="100" width="240" height="270" as="geometry">
            <mxRectangle x="510" y="110" width="100" height="30" as="alternateBounds" />
          </mxGeometry>
        </mxCell>
        <mxCell id="8" value="&lt;div align=&quot;left&quot;&gt;&lt;font face=&quot;Helvetica&quot;&gt;id: int&lt;/font&gt;&lt;/div&gt;&lt;div align=&quot;left&quot;&gt;&lt;font face=&quot;Helvetica&quot;&gt;&lt;br&gt;&lt;/font&gt;&lt;/div&gt;&lt;div align=&quot;left&quot;&gt;&lt;font face=&quot;Helvetica&quot;&gt;name: str&lt;/font&gt;&lt;/div&gt;&lt;div align=&quot;left&quot;&gt;&lt;font face=&quot;Helvetica&quot;&gt;&lt;br&gt;&lt;/font&gt;&lt;/div&gt;&lt;div align=&quot;left&quot;&gt;&lt;font face=&quot;Helvetica&quot;&gt;cargo_num: int&lt;/font&gt;&lt;/div&gt;&lt;div align=&quot;left&quot;&gt;&lt;font face=&quot;Helvetica&quot;&gt;&lt;br&gt;&lt;/font&gt;&lt;/div&gt;&lt;div align=&quot;left&quot;&gt;&lt;font face=&quot;Helvetica&quot;&gt;places_in_cargo: int&lt;/font&gt;&lt;/div&gt;&lt;div align=&quot;left&quot;&gt;&lt;font face=&quot;Helvetica&quot;&gt;&lt;br&gt;&lt;/font&gt;&lt;/div&gt;&lt;div align=&quot;left&quot;&gt;&lt;font face=&quot;Helvetica&quot;&gt;train_type: TrainType&lt;/font&gt;&lt;/div&gt;" style="text;html=1;align=left;verticalAlign=bottom;resizable=0;points=[];autosize=1;strokeColor=none;fillColor=none;fontSize=17;horizontal=1;fontFamily=Tahoma;" vertex="1" parent="7">
          <mxGeometry x="20" y="50" width="180" height="210" as="geometry" />
        </mxCell>
        <mxCell id="56" style="edgeStyle=orthogonalEdgeStyle;rounded=0;orthogonalLoop=1;jettySize=auto;html=1;exitX=1;exitY=0.25;exitDx=0;exitDy=0;entryX=0;entryY=0.5;entryDx=0;entryDy=0;startArrow=diamondThin;startFill=1;endArrow=block;endFill=1;" edge="1" parent="1" source="17" target="33">
          <mxGeometry relative="1" as="geometry">
            <mxPoint x="480" y="460" as="targetPoint" />
          </mxGeometry>
        </mxCell>
        <mxCell id="17" value="&lt;font style=&quot;font-size: 20px;&quot;&gt;Route&lt;/font&gt;" style="swimlane;whiteSpace=wrap;html=1;fontSize=15;startSize=40;movable=1;resizable=1;rotatable=1;deletable=1;editable=1;locked=0;connectable=1;" vertex="1" parent="1">
          <mxGeometry x="110" y="170" width="240" height="220" as="geometry">
            <mxRectangle x="510" y="110" width="100" height="30" as="alternateBounds" />
          </mxGeometry>
        </mxCell>
        <mxCell id="18" value="&lt;div style=&quot;&quot;&gt;&lt;u&gt;id&lt;/u&gt;: int&lt;/div&gt;&lt;div style=&quot;&quot;&gt;&lt;br&gt;&lt;/div&gt;&lt;div style=&quot;&quot;&gt;source: Station&lt;/div&gt;&lt;div style=&quot;&quot;&gt;&lt;br&gt;&lt;/div&gt;&lt;div style=&quot;&quot;&gt;destination:&amp;nbsp;&lt;span style=&quot;background-color: initial;&quot;&gt;Station&lt;/span&gt;&lt;/div&gt;&lt;div style=&quot;&quot;&gt;&lt;br&gt;&lt;/div&gt;&lt;div style=&quot;&quot;&gt;distance: int&lt;/div&gt;" style="text;html=1;align=left;verticalAlign=bottom;resizable=1;points=[];autosize=1;strokeColor=none;fillColor=none;fontSize=17;horizontal=1;fontFamily=Tahoma;movable=1;rotatable=1;deletable=1;editable=1;locked=0;connectable=1;" vertex="1" parent="17">
          <mxGeometry x="20" y="40" width="170" height="160" as="geometry" />
        </mxCell>
        <mxCell id="27" value="&lt;font style=&quot;font-size: 20px;&quot;&gt;Ticket&lt;/font&gt;" style="swimlane;whiteSpace=wrap;html=1;fontSize=15;startSize=40;" vertex="1" parent="1">
          <mxGeometry x="510" y="650" width="240" height="260" as="geometry">
            <mxRectangle x="510" y="110" width="100" height="30" as="alternateBounds" />
          </mxGeometry>
        </mxCell>
        <mxCell id="28" value="&lt;div&gt;&lt;u&gt;int&lt;/u&gt;: int&lt;/div&gt;&lt;div&gt;&lt;span style=&quot;background-color: initial;&quot;&gt;&lt;br&gt;&lt;/span&gt;&lt;/div&gt;&lt;div&gt;cargo: int&lt;/div&gt;&lt;div&gt;&lt;br&gt;&lt;/div&gt;&lt;div&gt;seat: int&lt;/div&gt;&lt;div&gt;&lt;br&gt;&lt;/div&gt;&lt;div&gt;journey: Journey&lt;/div&gt;&lt;div&gt;&lt;br&gt;&lt;/div&gt;&lt;div&gt;order: Order&lt;/div&gt;" style="text;html=1;align=left;verticalAlign=bottom;resizable=0;points=[];autosize=1;strokeColor=none;fillColor=none;fontSize=17;horizontal=1;fontFamily=Tahoma;" vertex="1" parent="27">
          <mxGeometry x="20" y="40" width="150" height="200" as="geometry" />
        </mxCell>
        <mxCell id="50" style="edgeStyle=none;rounded=0;orthogonalLoop=1;jettySize=auto;html=1;exitX=0.5;exitY=1;exitDx=0;exitDy=0;entryX=0.5;entryY=0;entryDx=0;entryDy=0;startArrow=block;startFill=1;endArrow=block;endFill=1;" edge="1" parent="1" source="29" target="33">
          <mxGeometry relative="1" as="geometry" />
        </mxCell>
        <mxCell id="29" value="&lt;font style=&quot;font-size: 20px;&quot;&gt;Crew&lt;/font&gt;" style="swimlane;whiteSpace=wrap;html=1;fontSize=15;startSize=40;movable=1;resizable=1;rotatable=1;deletable=1;editable=1;locked=0;connectable=1;" vertex="1" parent="1">
          <mxGeometry x="510" y="90" width="240" height="190" as="geometry">
            <mxRectangle x="510" y="110" width="100" height="30" as="alternateBounds" />
          </mxGeometry>
        </mxCell>
        <mxCell id="30" value="&lt;div style=&quot;&quot;&gt;&lt;u&gt;id&lt;/u&gt;: int&lt;/div&gt;&lt;div style=&quot;&quot;&gt;&lt;br&gt;&lt;/div&gt;&lt;div style=&quot;&quot;&gt;first_name: str&lt;/div&gt;&lt;div style=&quot;&quot;&gt;&lt;br&gt;&lt;/div&gt;&lt;div style=&quot;&quot;&gt;last_name: str&lt;/div&gt;" style="text;html=1;align=left;verticalAlign=bottom;resizable=1;points=[];autosize=1;strokeColor=none;fillColor=none;fontSize=17;horizontal=1;fontFamily=Tahoma;movable=1;rotatable=1;deletable=1;editable=1;locked=0;connectable=1;" vertex="1" parent="29">
          <mxGeometry x="20" y="40" width="130" height="120" as="geometry" />
        </mxCell>
        <mxCell id="70" style="edgeStyle=none;rounded=0;orthogonalLoop=1;jettySize=auto;html=1;exitX=0.5;exitY=1;exitDx=0;exitDy=0;entryX=0.5;entryY=0;entryDx=0;entryDy=0;elbow=vertical;startArrow=block;startFill=1;" edge="1" parent="1" source="33" target="27">
          <mxGeometry relative="1" as="geometry" />
        </mxCell>
        <mxCell id="33" value="&lt;font style=&quot;font-size: 20px;&quot;&gt;Journey (Trip)&lt;/font&gt;" style="swimlane;whiteSpace=wrap;html=1;fontSize=15;startSize=40;" vertex="1" parent="1">
          <mxGeometry x="510" y="340" width="240" height="260" as="geometry">
            <mxRectangle x="510" y="110" width="100" height="30" as="alternateBounds" />
          </mxGeometry>
        </mxCell>
        <mxCell id="34" value="&lt;div&gt;&lt;u&gt;int&lt;/u&gt;: int&lt;/div&gt;&lt;div&gt;&lt;span style=&quot;background-color: initial;&quot;&gt;&lt;br&gt;&lt;/span&gt;&lt;/div&gt;&lt;div&gt;route: Route&lt;/div&gt;&lt;div&gt;&lt;br&gt;&lt;/div&gt;&lt;div&gt;train: Train&lt;/div&gt;&lt;div&gt;&lt;br&gt;&lt;/div&gt;&lt;div&gt;departure_time: datetime&lt;/div&gt;&lt;div&gt;&lt;br&gt;&lt;/div&gt;&lt;div&gt;arrival_time: datetime&lt;/div&gt;" style="text;html=1;align=left;verticalAlign=bottom;resizable=0;points=[];autosize=1;strokeColor=none;fillColor=none;fontSize=17;horizontal=1;fontFamily=Tahoma;" vertex="1" parent="33">
          <mxGeometry x="20" y="50" width="220" height="200" as="geometry" />
        </mxCell>
        <mxCell id="47" style="edgeStyle=orthogonalEdgeStyle;rounded=0;orthogonalLoop=1;jettySize=auto;html=1;exitX=0;exitY=0.25;exitDx=0;exitDy=0;startArrow=diamondThin;startFill=1;" edge="1" parent="1" source="37">
          <mxGeometry relative="1" as="geometry">
            <mxPoint x="750" y="890" as="targetPoint" />
            <Array as="points">
              <mxPoint x="850" y="698" />
              <mxPoint x="850" y="890" />
            </Array>
          </mxGeometry>
        </mxCell>
        <mxCell id="37" value="&lt;font style=&quot;font-size: 20px;&quot;&gt;Order&lt;/font&gt;" style="swimlane;whiteSpace=wrap;html=1;fontSize=15;startSize=40;" vertex="1" parent="1">
          <mxGeometry x="910" y="650" width="250" height="190" as="geometry">
            <mxRectangle x="510" y="110" width="100" height="30" as="alternateBounds" />
          </mxGeometry>
        </mxCell>
        <mxCell id="38" value="&lt;div&gt;&lt;u&gt;int&lt;/u&gt;: int&lt;/div&gt;&lt;div&gt;&lt;span style=&quot;background-color: initial;&quot;&gt;&lt;br&gt;&lt;/span&gt;&lt;/div&gt;&lt;div&gt;created_at: datetime&lt;/div&gt;&lt;div&gt;&lt;br&gt;&lt;/div&gt;&lt;div&gt;user: User (built-in Django)&lt;/div&gt;" style="text;html=1;align=left;verticalAlign=bottom;resizable=0;points=[];autosize=1;strokeColor=none;fillColor=none;fontSize=17;horizontal=1;fontFamily=Tahoma;" vertex="1" parent="37">
          <mxGeometry x="10" y="40" width="230" height="120" as="geometry" />
        </mxCell>
        <mxCell id="42" value="&lt;font style=&quot;font-size: 17px;&quot;&gt;n&lt;/font&gt;" style="text;strokeColor=none;align=center;fillColor=none;html=1;verticalAlign=middle;whiteSpace=wrap;rounded=0;" vertex="1" parent="1">
          <mxGeometry x="1130" y="310" width="60" height="30" as="geometry" />
        </mxCell>
        <mxCell id="43" value="&lt;font style=&quot;font-size: 17px;&quot;&gt;1&lt;/font&gt;" style="text;strokeColor=none;align=center;fillColor=none;html=1;verticalAlign=middle;whiteSpace=wrap;rounded=0;" vertex="1" parent="1">
          <mxGeometry x="1080" y="430" width="60" height="30" as="geometry" />
        </mxCell>
        <mxCell id="48" value="&lt;font style=&quot;font-size: 17px;&quot;&gt;n&lt;/font&gt;" style="text;strokeColor=none;align=center;fillColor=none;html=1;verticalAlign=middle;whiteSpace=wrap;rounded=0;" vertex="1" parent="1">
          <mxGeometry x="750" y="850" width="60" height="30" as="geometry" />
        </mxCell>
        <mxCell id="49" value="&lt;font style=&quot;font-size: 17px;&quot;&gt;1&lt;/font&gt;" style="text;strokeColor=none;align=center;fillColor=none;html=1;verticalAlign=middle;whiteSpace=wrap;rounded=0;" vertex="1" parent="1">
          <mxGeometry x="850" y="660" width="60" height="30" as="geometry" />
        </mxCell>
        <mxCell id="51" value="&lt;font style=&quot;font-size: 17px;&quot;&gt;n&lt;/font&gt;" style="text;strokeColor=none;align=center;fillColor=none;html=1;verticalAlign=middle;whiteSpace=wrap;rounded=0;" vertex="1" parent="1">
          <mxGeometry x="620" y="280" width="60" height="30" as="geometry" />
        </mxCell>
        <mxCell id="52" value="&lt;font style=&quot;font-size: 17px;&quot;&gt;n&lt;/font&gt;" style="text;strokeColor=none;align=center;fillColor=none;html=1;verticalAlign=middle;whiteSpace=wrap;rounded=0;" vertex="1" parent="1">
          <mxGeometry x="580" y="310" width="60" height="30" as="geometry" />
        </mxCell>
        <mxCell id="53" style="edgeStyle=orthogonalEdgeStyle;rounded=0;orthogonalLoop=1;jettySize=auto;html=1;exitX=0;exitY=0.25;exitDx=0;exitDy=0;entryX=1.001;entryY=0.086;entryDx=0;entryDy=0;entryPerimeter=0;startArrow=diamond;startFill=1;endArrow=block;endFill=1;" edge="1" parent="1" source="7" target="33">
          <mxGeometry relative="1" as="geometry" />
        </mxCell>
        <mxCell id="54" value="&lt;font style=&quot;font-size: 17px;&quot;&gt;n&lt;/font&gt;" style="text;strokeColor=none;align=center;fillColor=none;html=1;verticalAlign=middle;whiteSpace=wrap;rounded=0;" vertex="1" parent="1">
          <mxGeometry x="750" y="320" width="60" height="30" as="geometry" />
        </mxCell>
        <mxCell id="55" value="&lt;font style=&quot;font-size: 17px;&quot;&gt;1&lt;/font&gt;" style="text;strokeColor=none;align=center;fillColor=none;html=1;verticalAlign=middle;whiteSpace=wrap;rounded=0;" vertex="1" parent="1">
          <mxGeometry x="830" y="130" width="60" height="30" as="geometry" />
        </mxCell>
        <mxCell id="57" value="&lt;font style=&quot;font-size: 17px;&quot;&gt;n&lt;/font&gt;" style="text;strokeColor=none;align=center;fillColor=none;html=1;verticalAlign=middle;whiteSpace=wrap;rounded=0;" vertex="1" parent="1">
          <mxGeometry x="440" y="440" width="60" height="30" as="geometry" />
        </mxCell>
        <mxCell id="58" value="&lt;font style=&quot;font-size: 17px;&quot;&gt;1&lt;/font&gt;" style="text;strokeColor=none;align=center;fillColor=none;html=1;verticalAlign=middle;whiteSpace=wrap;rounded=0;" vertex="1" parent="1">
          <mxGeometry x="350" y="190" width="60" height="30" as="geometry" />
        </mxCell>
        <mxCell id="61" style="edgeStyle=orthogonalEdgeStyle;rounded=0;orthogonalLoop=1;jettySize=auto;html=1;entryX=0.917;entryY=-0.004;entryDx=0;entryDy=0;entryPerimeter=0;elbow=vertical;startArrow=diamond;startFill=1;exitX=1;exitY=0.5;exitDx=0;exitDy=0;" edge="1" parent="1" source="17" target="XHiDL_9w_AK1erUn259C-10">
          <mxGeometry relative="1" as="geometry">
            <mxPoint x="360" y="280" as="sourcePoint" />
            <Array as="points">
              <mxPoint x="390" y="280" />
              <mxPoint x="390" y="415" />
              <mxPoint x="330" y="415" />
            </Array>
          </mxGeometry>
        </mxCell>
        <mxCell id="62" style="edgeStyle=orthogonalEdgeStyle;rounded=0;orthogonalLoop=1;jettySize=auto;html=1;entryX=0.775;entryY=-0.012;entryDx=0;entryDy=0;entryPerimeter=0;elbow=vertical;startArrow=diamond;startFill=1;" edge="1" parent="1" target="XHiDL_9w_AK1erUn259C-10">
          <mxGeometry relative="1" as="geometry">
            <mxPoint x="350" y="320" as="sourcePoint" />
            <Array as="points">
              <mxPoint x="350" y="320" />
              <mxPoint x="390" y="320" />
              <mxPoint x="390" y="415" />
              <mxPoint x="296" y="415" />
            </Array>
          </mxGeometry>
        </mxCell>
        <mxCell id="63" value="&lt;font style=&quot;font-size: 17px;&quot;&gt;n&lt;/font&gt;" style="text;strokeColor=none;align=center;fillColor=none;html=1;verticalAlign=middle;whiteSpace=wrap;rounded=0;" vertex="1" parent="1">
          <mxGeometry x="330" y="290" width="60" height="30" as="geometry" />
        </mxCell>
        <mxCell id="64" value="&lt;font style=&quot;font-size: 17px;&quot;&gt;1&lt;/font&gt;" style="text;strokeColor=none;align=center;fillColor=none;html=1;verticalAlign=middle;whiteSpace=wrap;rounded=0;" vertex="1" parent="1">
          <mxGeometry x="240" y="410" width="60" height="30" as="geometry" />
        </mxCell>
        <mxCell id="65" value="&lt;font size=&quot;1&quot; style=&quot;&quot;&gt;&lt;b style=&quot;font-size: 40px;&quot;&gt;Train Station Ticket Service&lt;/b&gt;&lt;/font&gt;" style="text;strokeColor=none;align=center;fillColor=none;html=1;verticalAlign=middle;whiteSpace=wrap;rounded=0;" vertex="1" parent="1">
          <mxGeometry x="360" y="10" width="640" height="80" as="geometry" />
        </mxCell>
        <mxCell id="67" value="&lt;font style=&quot;font-size: 17px;&quot;&gt;1&lt;/font&gt;" style="text;strokeColor=none;align=center;fillColor=none;html=1;verticalAlign=middle;whiteSpace=wrap;rounded=0;" vertex="1" parent="1">
          <mxGeometry x="630" y="600" width="60" height="30" as="geometry" />
        </mxCell>
        <mxCell id="68" value="&lt;font style=&quot;font-size: 17px;&quot;&gt;n&lt;/font&gt;" style="text;strokeColor=none;align=center;fillColor=none;html=1;verticalAlign=middle;whiteSpace=wrap;rounded=0;" vertex="1" parent="1">
          <mxGeometry x="580" y="620" width="60" height="30" as="geometry" />
        </mxCell>
      </root>
    </mxGraphModel>
  </diagram>
</mxfile>
